<?xml version="1.0" encoding="utf-8"?>
<!-- Generator: Adobe Illustrator 16.0.0, SVG Export Plug-In . SVG Version: 6.00 Build 0)  -->
<!DOCTYPE svg PUBLIC "-//W3C//DTD SVG 1.1//EN" "http://www.w3.org/Graphics/SVG/1.1/DTD/svg11.dtd">
<svg version="1.1" id="圖層_1" xmlns="http://www.w3.org/2000/svg" xmlns:xlink="http://www.w3.org/1999/xlink" x="0px" y="0px"
	 width="325.846px" height="537px" viewBox="0 0 325.846 537" enable-background="new 0 0 325.846 537" xml:space="preserve">
<path fill="#FF3B3B" d="M294.766,12.5c0,6.903-4.573,12.5-10.215,12.5H43.48c-5.641,0-10.215-5.597-10.215-12.5l0,0
	C33.265,5.597,37.839,0,43.48,0h241.071C290.193,0,294.766,5.597,294.766,12.5L294.766,12.5z"/>
<path fill="#FF3B3B" d="M12.5,13.84c6.903,0,12.5,4.363,12.5,9.746v230.008c0,5.378-5.597,9.732-12.5,9.732l0,0
	c-6.903,0-12.5-4.354-12.5-9.732V23.586C0,18.203,5.597,13.84,12.5,13.84L12.5,13.84z"/>
<path fill="#FF3B3B" d="M293.766,269.5c0,6.903-4.573,12.5-10.215,12.5H42.48c-5.641,0-10.215-5.597-10.215-12.5l0,0
	c0-6.903,4.574-12.5,10.215-12.5h241.071C289.193,257,293.766,262.597,293.766,269.5L293.766,269.5z"/>
<path fill="#FF3B3B" d="M294.766,524.5c0,6.903-4.573,12.5-10.215,12.5H43.48c-5.641,0-10.215-5.597-10.215-12.5l0,0
	c0-6.903,4.574-12.5,10.215-12.5h241.071C290.193,512,294.766,517.597,294.766,524.5L294.766,524.5z"/>
<path fill="#FF3B3B" d="M313.221,13.84c6.903,0,12.5,4.363,12.5,9.746v230.008c0,5.378-5.597,9.732-12.5,9.732l0,0
	c-6.903,0-12.5-4.354-12.5-9.732V23.586C300.721,18.203,306.318,13.84,313.221,13.84L313.221,13.84z"/>
<path fill="#FF3B3B" d="M12.625,275.646c6.903,0,12.5,4.363,12.5,9.746V515.4c0,5.383-5.597,9.74-12.5,9.74l0,0
	c-6.903,0-12.5-4.357-12.5-9.74V285.393C0.125,280.01,5.721,275.646,12.625,275.646L12.625,275.646z"/>
<path fill="#FF3B3B" d="M313.346,275.646c6.902,0,12.5,4.363,12.5,9.746V515.4c0,5.383-5.598,9.74-12.5,9.74l0,0
	c-6.904,0-12.5-4.357-12.5-9.74V285.393C300.846,280.01,306.442,275.646,313.346,275.646L313.346,275.646z"/>
<path fill="#FF3B3B" d="M191.515,138.583c0,15.188-12.313,27.5-27.5,27.5l0,0c-15.188,0-27.5-12.312-27.5-27.5l0,0
	c0-15.188,12.312-27.5,27.5-27.5l0,0C179.203,111.083,191.515,123.396,191.515,138.583L191.515,138.583z"/>
<path fill="#FF3B3B" d="M190.423,400.395c0,15.188-12.313,27.5-27.5,27.5l0,0c-15.188,0-27.5-12.313-27.5-27.5l0,0
	c0-15.188,12.312-27.5,27.5-27.5l0,0C178.111,372.895,190.423,385.207,190.423,400.395L190.423,400.395z"/>
</svg>
